<?xml version="1.0" encoding="utf-8"?>
<!-- Generator: Adobe Illustrator 16.0.0, SVG Export Plug-In . SVG Version: 6.00 Build 0)  -->
<!DOCTYPE svg PUBLIC "-//W3C//DTD SVG 1.1//EN" "http://www.w3.org/Graphics/SVG/1.1/DTD/svg11.dtd">
<svg version="1.1" id="Layer_1" xmlns="http://www.w3.org/2000/svg" xmlns:xlink="http://www.w3.org/1999/xlink" x="0px" y="0px"
	 width="64px" height="64px" viewBox="0 0 64 64" enable-background="new 0 0 64 64" xml:space="preserve">
<g id="XMLID_10_">
	<path id="XMLID_7_" fill="#EC1E24" d="M45.055,4.638c-4.91,0-9.383,2.067-12.75,5.456c-3.366-3.389-7.84-5.456-12.749-5.456
		C9.092,4.638,0.609,14.022,0.609,25.6c0,5.872,2.185,11.178,5.702,14.98v0.004c0.011,0.01,0.021,0.021,0.033,0.033
		c0.836,0.898,1.745,1.715,2.719,2.434c11.394,9.648,18.645,8.672,23.242,18.301c4.599-9.629,11.847-8.65,23.244-18.301
		c0.975-0.719,1.881-1.535,2.719-2.434c0.012-0.012,0.02-0.023,0.031-0.033V40.58C61.816,36.775,64,31.472,64,25.6
		C64,14.022,55.52,4.638,45.055,4.638z"/>
	<g id="XMLID_2_">
		<g id="XMLID_3_">
			<path id="XMLID_6_" fill="#FFFFFF" d="M60.328,23.994H4.173l0.037,5.188c1.185,9.012,7.226,14.803,16.708,14.803
				c2.667,0,5.53-0.602,8.105-1.793v-8.779c-1.834,1.834-5.302,2.902-7.98,2.902c-5.319,0-8.612-2.982-9.163-7.133h40.885
				c-0.551,4.15-3.844,7.133-9.16,7.133c-2.682,0-6.146-1.068-7.98-2.902v8.779c2.576,1.191,5.436,1.793,8.104,1.793
				c9.48,0,15.523-5.791,16.707-14.803L60.328,23.994z"/>
			<path id="XMLID_5_" fill="#FFFFFF" d="M4.32,21.877h7.725c1.176-4.284,4.503-6.432,8.561-6.432c4.304,0,7.391,2.147,7.963,6.432
				h0.454V10.209c-2.398-1.479-5.327-2.226-8.668-2.226C11.679,7.984,5.736,13.612,4.32,21.877z"/>
			<path id="XMLID_4_" fill="#FFFFFF" d="M44.043,15.447c4.057,0,7.385,2.147,8.561,6.432h7.725
				c-1.416-8.267-7.357-13.894-16.035-13.894c-3.342,0-6.27,0.747-8.668,2.226v11.668h0.453
				C36.652,17.594,39.736,15.447,44.043,15.447z"/>
		</g>
	</g>
</g>
</svg>
